<svg version="1.2" xmlns="http://www.w3.org/2000/svg" viewBox="0 0 142 26" width="142" height="26">
	<title>Yatay Beyaz Logo</title>
	<style>
		.s1 { fill: #fbfbfb } 
	</style>
	<g id="Turuncu_Logo.">
		<g id="Vektörler.">
			<path fill-rule="evenodd" class="s1" d="m13.4 0.6v2.9h-4.8v15.1h-3.7v-15.1h-4.8v-2.9h13.3z"/>
			<path class="s1" d="m26.4 12.8h-10.4q0.1 1.5 1.1 2.4 0.9 0.9 2.3 0.9 2 0 2.9-1.8h3.9q-0.6 2.1-2.4 3.4-1.8 1.4-4.3 1.4-2.1 0-3.7-1-1.6-0.9-2.6-2.5-0.9-1.7-0.9-3.9 0-2.2 0.9-3.9 0.9-1.7 2.5-2.6 1.7-0.9 3.8-0.9c1.4 0 2.6 0.3 3.6 0.9q1.6 0.9 2.5 2.5 0.9 1.6 0.9 3.7 0 0.7-0.1 1.4m-3.6-2.5q0-1.4-1-2.2-1-0.8-2.4-0.8-1.3 0-2.3 0.8-0.9 0.8-1.1 2.2z"/>
			<path fill-rule="evenodd" class="s1" d="m37.6 18.6l-4.8-6.1v6.1h-3.6v-18h3.6v9.8l4.8-6.1h4.7l-6.3 7.2 6.3 7.1h-4.7z"/>
			<path fill-rule="evenodd" class="s1" d="m85.2 4.3l-8.9 21.1h-3.8l3.1-7.1-5.8-14h4.1l3.7 10 3.7-10h3.9z"/>
			<path class="s1" d="m99.7 12.6h-10.5q0.2 1.5 1.1 2.4 1 0.9 2.4 0.9 2 0 2.8-1.8h3.9q-0.6 2.1-2.3 3.4-1.8 1.4-4.4 1.4-2 0-3.7-1-1.6-0.9-2.5-2.6-0.9-1.6-0.9-3.8 0-2.2 0.9-3.9 0.9-1.7 2.5-2.6 1.6-0.9 3.7-0.9c1.5 0 2.6 0.3 3.7 0.9q1.6 0.9 2.5 2.5 0.9 1.6 0.9 3.7 0 0.7-0.1 1.4zm-3.6-2.5q-0.1-1.4-1-2.2-1-0.8-2.4-0.8-1.4 0-2.3 0.8-0.9 0.8-1.1 2.2z"/>
			<path class="s1" d="m107.3 4.8q1.1-0.7 2.5-0.7v3.8h-0.9q-1.7 0-2.6 0.8-0.8 0.8-0.8 2.8v7.1h-3.6v-14.3h3.6v2.2q0.7-1.1 1.8-1.7"/>
			<path class="s1" d="m111.6 7.6q0.9-1.7 2.4-2.6 1.5-0.9 3.3-0.9 1.4 0 2.7 0.6 1.2 0.6 2 1.6v-5.7h3.6v18h-3.6v-2.1q-0.7 1.1-1.9 1.7-1.2 0.7-2.8 0.7-1.8 0-3.3-1-1.5-0.9-2.4-2.6-0.8-1.7-0.8-3.9 0-2.2 0.8-3.8m9.9 1.6q-0.5-0.9-1.4-1.4-0.9-0.5-1.9-0.5-1 0-1.8 0.5-0.9 0.5-1.4 1.4-0.6 0.9-0.6 2.2 0 1.3 0.6 2.3 0.5 1 1.4 1.5 0.8 0.5 1.8 0.5 1 0 1.9-0.5 0.9-0.5 1.4-1.5 0.5-0.9 0.5-2.2 0-1.3-0.5-2.3z"/>
			<path class="s1" d="m141.8 12.6h-10.5q0.1 1.5 1.1 2.4 0.9 0.9 2.3 0.9 2.1 0 2.9-1.8h3.9q-0.6 2.1-2.4 3.4-1.7 1.4-4.3 1.4-2.1 0-3.7-1-1.6-0.9-2.5-2.6-1-1.6-1-3.8 0-2.2 0.9-3.9 0.9-1.7 2.6-2.6 1.6-0.9 3.7-0.9c1.4 0 2.6 0.3 3.7 0.9q1.6 0.9 2.5 2.5 0.8 1.6 0.9 3.7-0.1 0.7-0.1 1.4zm-3.7-2.5q0-1.4-1-2.2-1-0.8-2.4-0.8-1.3 0-2.2 0.8-1 0.8-1.2 2.2z"/>
			<path class="s1" d="m50 9.7h-3.2c-0.3 0-0.6 0.2-0.6 0.6 0 0.3 0.3 0.5 0.6 0.5h3.2c0.3 0 0.6-0.2 0.6-0.5 0-0.4-0.3-0.6-0.6-0.6z"/>
			<path class="s1" d="m49.5 7h-5.4c-0.3 0-0.6 0.3-0.6 0.6 0 0.3 0.3 0.6 0.6 0.6h5.4c0.3 0 0.6-0.3 0.6-0.6 0-0.3-0.3-0.6-0.6-0.6z"/>
			<path class="s1" d="m45.1 5.6h4c0.3 0 0.6-0.3 0.6-0.7 0-0.3-0.3-0.6-0.6-0.6h-4c-0.4 0-0.6 0.3-0.6 0.6 0 0.4 0.2 0.7 0.6 0.7z"/>
			<path class="s1" d="m60.8 17.3c0.3 0 0.6-0.2 0.6-0.5 0-0.3-0.3-0.6-0.6-0.6-0.3 0-0.6 0.3-0.6 0.6 0 0.3 0.3 0.5 0.6 0.5z"/>
			<path class="s1" d="m53.4 16.8c0 0.3 0.2 0.5 0.5 0.5 0.3 0 0.6-0.2 0.6-0.5 0-0.3-0.2-0.6-0.6-0.6-0.3 0-0.5 0.3-0.5 0.6z"/>
			<path class="s1" d="m53.8 18.9h0.2c0.9-0.1 1.7-0.8 1.9-1.7h2.8c0.2 1 1.1 1.7 2.1 1.7 1.1 0 2-1 2-2.1 0-1.2-0.9-2.1-2-2.1-0.9 0-1.7 0.5-2 1.3h-3c-0.2-0.6-0.7-1-1.3-1.2v-0.3c0-0.3 0.2-0.6 0.6-0.6h8c1.1 0 2-0.7 2.3-1.7l1.6-6q0-0.2 0-0.4 0-0.5-0.3-0.9c-0.3-0.4-0.7-0.6-1.2-0.6h-12.4l-0.2-1.6c-0.2-1.1-1.1-1.9-2.2-2l-1.6-0.1h-0.1c-0.3 0-0.6 0.3-0.6 0.6 0 0.4 0.2 0.7 0.6 0.7l1.6 0.1c0.5 0 1 0.4 1 0.9l1.3 7.3c0 0.3 0.3 0.6 0.6 0.6q0 0 0.1 0c0.3-0.1 0.6-0.4 0.5-0.7l-0.8-4.5h12.2c0.1 0 0.2 0 0.2 0.1 0 0 0.1 0.1 0.1 0.2l-1.6 6c-0.1 0.4-0.6 0.8-1.1 0.8h-8.1c-1 0-1.8 0.8-1.8 1.8v0.3c-0.8 0.3-1.4 1.1-1.4 2 0 1.1 0.9 2 2 2.1zm7-3.2c0.5 0 1 0.5 1 1.1 0 0.6-0.4 1.1-1 1.1-0.7 0-1.1-0.5-1.1-1.1 0-0.6 0.4-1.1 1.1-1.1zm-5.8 1.1c0 0.6-0.5 1.1-1.1 1.1-0.6 0-1.1-0.5-1.1-1.1 0-0.6 0.5-1.1 1.1-1.1 0.6 0 1.1 0.5 1.1 1.1z"/>
		</g>
	</g>
</svg>